<svg xmlns="http://www.w3.org/2000/svg" width="67.36" height="87.045" viewBox="0 0 67.36 87.045">
  <g id="operator" transform="translate(2 2)">
    <g id="Group_37" data-name="Group 37" transform="translate(0 0)">
      <g id="Path_16" data-name="Path 16" transform="translate(-60.68 0)" fill="#008ced">
        <path d="M 67.11074066162109 84.04470062255859 L 62.30194091796875 84.04470062255859 C 60.85617446899414 84.04470062255859 59.67996215820312 82.86848449707031 59.67996215820312 81.4227294921875 L 59.67996215820312 68.76096343994141 C 59.67996215820312 68.74617767333984 59.68001937866211 68.731689453125 59.68027496337891 68.7169189453125 C 59.7266845703125 65.87937927246094 60.46648406982422 63.32025527954102 61.87909698486328 61.11172103881836 C 63.11579513549805 59.17823028564453 64.83123016357422 57.52137756347656 67.12342834472656 56.04648590087891 C 71.20771026611328 53.41851043701172 76.38900756835938 51.92131042480469 80.55226135253906 50.71828842163086 L 80.57130432128906 50.71278762817383 C 81.29161834716797 50.50456237792969 81.98255920410156 50.30483627319336 82.64429473876953 50.10704040527344 L 82.64429473876953 46.73518753051758 C 80.85639953613281 45.53475189208984 79.32167053222656 44.03292846679688 78.07650756835938 42.26430892944336 C 76.85775756835938 40.53320693969727 75.97782897949219 38.63188171386719 75.45485687255859 36.60197448730469 L 74.90805053710938 36.60197448730469 C 71.11737060546875 36.60197448730469 68.03343963623047 33.51591873168945 68.03343963623047 29.72264289855957 L 68.03343963623047 28.00773239135742 C 68.03343963623047 27.1390323638916 68.19419097900391 26.29336929321289 68.51160430908203 25.49049377441406 L 68.51160430908203 22.8537540435791 C 68.51160430908203 9.700742721557617 79.21000671386719 -1.000012874603271 92.36013031005859 -1.000012874603271 C 105.5127410888672 -1.000012874603271 116.2131729125977 9.700664520263672 116.2131729125977 22.85358619689941 L 116.2131729125977 25.50094795227051 C 116.5275802612305 26.30026245117188 116.6868209838867 27.14244270324707 116.6868209838867 28.00757598876953 L 116.6868209838867 29.72248649597168 C 116.6868209838867 30.58823204040527 116.5275573730469 31.4310131072998 116.2131729125977 32.23078918457031 L 116.2131729125977 37.54769897460938 C 116.2131729125977 40.61082077026367 113.7211532592773 43.10285568237305 110.6580429077148 43.10285568237305 L 106.0160522460938 43.10285568237305 C 104.8926773071289 44.51318359375 103.5707626342773 45.73205184936523 102.0759429931641 46.73599624633789 L 102.0759429931641 50.1070442199707 C 102.7591094970703 50.3112678527832 103.4722518920898 50.51730346679688 104.1679153442383 50.71827697753906 C 108.3312835693359 51.92132186889648 113.5126495361328 53.41853332519531 117.596809387207 56.04642105102539 C 119.8890075683594 57.52129745483398 121.6044387817383 59.17815399169922 122.8411407470703 61.11165237426758 C 124.2537536621094 63.32019805908203 124.9935531616211 65.87934112548828 125.0399703979492 68.71799468994141 C 125.0402069091797 68.73255157470703 125.0402526855469 68.74666595458984 125.0402526855469 68.76078796386719 L 125.0402526855469 81.42257690429688 C 125.0402526855469 82.86833190917969 123.8640441894531 84.04453277587891 122.4182815551758 84.04453277587891 L 81.675537109375 84.04453277587891 C 80.22978210449219 84.04453277587891 79.0535888671875 82.86833190917969 79.0535888671875 81.42257690429688 C 79.0535888671875 79.976806640625 80.22978210449219 78.80059051513672 81.675537109375 78.80059051513672 L 84.39304351806641 78.80059051513672 L 86.73116302490234 68.54712677001953 L 85.65564727783203 64.50473022460938 L 85.07273101806641 64.89794158935547 C 84.64412689208984 65.18711853027344 84.14183807373047 65.33999633789062 83.6202392578125 65.33999633789062 C 82.62206268310547 65.33999633789062 81.72300720214844 64.79646301269531 81.27394104003906 63.9214973449707 L 77.74079895019531 57.03769302368164 C 75.34573364257812 57.80820465087891 72.49027252197266 58.85855484008789 70.14833831787109 60.3316764831543 C 68.35621643066406 61.45894241333008 67.07040405273438 62.68357467651367 66.21743774414062 64.0755615234375 C 65.37947845458984 65.44305419921875 64.95626831054688 66.98307800292969 64.92375183105469 68.78300476074219 L 64.92375183105469 78.80076599121094 L 67.11074066162109 78.80076599121094 C 68.55651092529297 78.80076599121094 69.73271942138672 79.97697448730469 69.73271942138672 81.4227294921875 C 69.73271942138672 82.86848449707031 68.55651092529297 84.04470062255859 67.11074066162109 84.04470062255859 Z M 100.3309631347656 78.80076599121094 L 119.7966537475586 78.80076599121094 L 119.7966537475586 68.78302764892578 C 119.7641677856445 66.98296356201172 119.340950012207 65.44314575195312 118.5029067993164 64.07552337646484 C 117.6499176025391 62.68349838256836 116.364128112793 61.45888900756836 114.5720977783203 60.33171081542969 C 112.2307739257812 58.85901641845703 109.3754119873047 57.80868148803711 106.9804153442383 57.03815460205078 L 103.4514999389648 63.9206657409668 C 103.0026092529297 64.79616546630859 102.1034317016602 65.34003448486328 101.104866027832 65.34003448486328 C 100.5834426879883 65.34003448486328 100.0812377929688 65.18726348876953 99.65256500244141 64.89823150634766 L 99.06529998779297 64.50222778320312 L 97.9891357421875 68.54682159423828 L 100.3309631347656 78.80076599121094 Z M 89.77171325683594 78.80076599121094 L 94.95198822021484 78.80076599121094 L 93.19802856445312 71.12083435058594 L 91.52297210693359 71.12083435058594 L 89.77171325683594 78.80076599121094 Z M 91.44720458984375 65.87687683105469 L 93.27303314208984 65.87687683105469 L 94.46417236328125 61.3996696472168 L 92.36133575439453 59.98161315917969 L 90.25652313232422 61.40136337280273 L 91.44720458984375 65.87687683105469 Z M 82.85179138183594 55.51168060302734 L 84.5899658203125 58.89813995361328 L 87.67194366455078 56.81927871704102 L 84.85130310058594 54.91717910766602 C 84.19818115234375 55.11797714233398 83.52346801757812 55.31652450561523 82.85179138183594 55.51168060302734 Z M 97.05044555664062 56.81873321533203 L 100.1336975097656 58.89785003662109 L 101.8697662353516 55.51206588745117 C 101.1959609985352 55.31630325317383 100.5201873779297 55.11747360229492 99.86931610107422 54.91736602783203 L 97.05044555664062 56.81873321533203 Z M 87.88807678222656 50.64048385620117 L 92.36082458496094 53.65657424926758 L 96.83183288574219 50.64059829711914 L 96.83183288574219 49.11392974853516 C 95.37696838378906 49.50051879882812 93.87835693359375 49.69585418701172 92.35995483398438 49.69585418701172 C 90.84300231933594 49.69585418701172 89.34420776367188 49.50013732910156 87.88807678222656 49.11293029785156 L 87.88807678222656 50.64048385620117 Z M 80.2376708984375 33.70642471313477 C 80.59133148193359 36.6440315246582 82.00892639160156 39.35559463500977 84.23004150390625 41.34269714355469 C 86.47120666503906 43.34774398803711 89.35852813720703 44.45199966430664 92.36015319824219 44.45207595825195 C 94.31282043457031 44.45207595825195 96.21860504150391 43.98362731933594 97.92995452880859 43.10301971435547 L 92.36013031005859 43.10301971435547 C 90.91437530517578 43.10301971435547 89.7381591796875 41.92681121826172 89.7381591796875 40.48105239868164 C 89.7381591796875 39.03528594970703 90.91437530517578 37.85907745361328 92.36013031005859 37.85907745361328 L 103.1976165771484 37.85907745361328 C 104.0996475219727 36.12644577026367 104.5741424560547 34.1946907043457 104.5741424560547 32.23752975463867 L 104.5741424560547 27.53688049316406 C 104.0809555053711 27.23088073730469 103.6186218261719 26.9365348815918 103.2286071777344 26.68824195861816 C 100.8500747680664 25.17406463623047 99.41544342041016 24.26076507568359 97.70006561279297 24.26076507568359 C 97.1920166015625 24.26076507568359 96.65647888183594 24.33967590332031 96.06417846679688 24.50190734863281 C 95.16641235351562 24.83968353271484 94.33921813964844 25.15811347961426 93.53879547119141 25.46624183654785 C 88.58863067626953 27.37188148498535 85.29637145996094 28.63930511474609 80.14609527587891 28.6722412109375 L 80.14609527587891 32.23752975463867 C 80.14609527587891 32.70415115356445 80.17490386962891 33.17533493041992 80.23414611816406 33.67746353149414 L 80.23600769042969 33.68965530395508 L 80.2376708984375 33.70642471313477 Z M 108.8884811401367 37.85890960693359 L 110.6580429077148 37.85890960693359 C 110.8296432495117 37.85890960693359 110.9692535400391 37.71931076049805 110.9692535400391 37.54771041870117 L 110.9692535400391 36.54771041870117 L 110.9694061279297 36.54771041870117 L 110.9694061279297 36.50383758544922 C 110.5888977050781 36.56902694702148 110.2024688720703 36.60183334350586 109.8123397827148 36.60183334350586 L 109.2650375366211 36.60183334350586 C 109.1555862426758 37.02486801147461 109.029899597168 37.44443511962891 108.8884811401367 37.85890960693359 Z M 74.90233612060547 26.37691879272461 C 74.00581359863281 26.38003540039062 73.27738189697266 27.11041831970215 73.27738189697266 28.00774192810059 L 73.27738189697266 29.72265434265137 C 73.27738189697266 30.62286758422852 74.00637054443359 31.35552406311035 74.90341949462891 31.35802459716797 C 74.903076171875 30.07501792907715 74.90261840820312 27.84872436523438 74.90233612060547 26.37691879272461 Z M 109.8180541992188 26.37675285339355 C 109.8177490234375 27.95041656494141 109.8173217773438 30.10772323608398 109.8169784545898 31.35786819458008 C 110.7139434814453 31.35527801513672 111.4428634643555 30.62265777587891 111.4428634643555 29.72249794006348 L 111.4428634643555 28.72249794006348 L 111.4430313110352 28.72249794006348 L 111.4430313110352 28.00758743286133 C 111.4430313110352 27.11025238037109 110.7145690917969 26.37986946105957 109.8180541992188 26.37675285339355 Z M 92.35995483398438 10.90586471557617 C 85.6251220703125 10.90586471557617 80.14592742919922 16.38528633117676 80.14592742919922 23.12042045593262 L 80.14592742919922 23.43069076538086 C 84.29836273193359 23.40400886535645 86.92919921875 22.39128303527832 91.65393829345703 20.57253074645996 L 91.68678283691406 20.55988693237305 C 92.51868438720703 20.23969841003418 93.37889862060547 19.90860939025879 94.32549285888672 19.55308723449707 C 94.39080810546875 19.52863121032715 94.45779418945312 19.50654220581055 94.52544403076172 19.48714256286621 C 95.62506103515625 19.17251968383789 96.65826416015625 19.0196647644043 97.68470764160156 19.0196647644043 C 100.274055480957 19.0196647644043 102.3676910400391 20.01228523254395 104.4319763183594 21.25617599487305 C 103.5315704345703 15.40293884277344 98.46092987060547 10.90586471557617 92.35995483398438 10.90586471557617 Z M 109.7045364379883 21.13279914855957 L 109.8121871948242 21.13279914855957 C 110.1775741577148 21.13279914855957 110.5396423339844 21.16154479980469 110.8967361450195 21.21871948242188 C 110.5143051147461 16.82410430908203 108.5960235595703 12.74085712432861 105.4140548706055 9.604520797729492 C 101.9069290161133 6.147698402404785 97.27095031738281 4.243942737579346 92.36013031005859 4.243942737579346 C 87.45084381103516 4.243942737579346 82.81623077392578 6.147476196289062 79.31002044677734 9.603887557983398 C 76.12863922119141 12.74008178710938 74.21054840087891 16.82333183288574 73.82794189453125 21.21800994873047 C 74.18355560302734 21.16131591796875 74.54413604736328 21.13279914855957 74.90789794921875 21.13279914855957 L 75.01553344726562 21.13279914855957 C 76.00944519042969 12.38458919525146 83.45296478271484 5.661920547485352 92.36013031005859 5.661920547485352 C 101.2672119140625 5.661920547485352 108.7106399536133 12.38458919525146 109.7045364379883 21.13279914855957 Z" stroke="none"/>
        <path d="M 67.11074829101562 83.04470825195312 C 68.00641632080078 83.04470825195312 68.73271942138672 82.31855773925781 68.73271942138672 81.4227294921875 C 68.73271942138672 80.52690887451172 68.00641632080078 79.80075836181641 67.11074829101562 79.80075836181641 L 63.92374420166016 79.80075836181641 L 63.92374420166016 68.7744140625 C 63.99203109741211 64.83676910400391 65.80085754394531 61.88491821289062 69.61589813232422 59.48520660400391 C 72.13335418701172 57.90167999267578 75.21104431152344 56.77342987060547 78.24476623535156 55.82960510253906 L 82.16360473632812 63.46489334106445 C 82.60041046142578 64.31594085693359 83.71876525878906 64.60512542724609 84.51350402832031 64.06891632080078 L 86.26087188720703 62.89021682739258 L 87.76104736328125 68.52869415283203 L 85.19068145751953 79.80059051513672 L 81.67554473876953 79.80059051513672 C 80.7799072265625 79.80059051513672 80.05358123779297 80.52675628662109 80.05358123779297 81.42256927490234 C 80.05358123779297 82.31838226318359 80.7799072265625 83.04453277587891 81.67554473876953 83.04453277587891 L 122.4182815551758 83.04453277587891 C 123.3139419555664 83.04453277587891 124.0402450561523 82.31838226318359 124.0402450561523 81.42256927490234 L 124.0402450561523 68.76079559326172 C 124.0402450561523 68.75202941894531 124.0402450561523 68.74327087402344 124.0400848388672 68.73435211181641 L 124.0401077270508 68.73435211181641 C 123.8555221557617 57.44818115234375 112.3161926269531 54.11371612548828 103.8903732299805 51.67898178100586 C 102.9072952270508 51.39498138427734 101.9618301391602 51.12166595458984 101.0759353637695 50.84884262084961 L 101.0759353637695 46.1929817199707 C 102.798454284668 45.11323165893555 104.3078536987305 43.72369384765625 105.5254974365234 42.10285568237305 L 110.6580352783203 42.10285568237305 C 113.1696548461914 42.10285568237305 115.2131729125977 40.05932998657227 115.2131729125977 37.54770660400391 L 115.2131729125977 32.03363037109375 C 115.5176315307617 31.32385444641113 115.6868209838867 30.54271697998047 115.6868209838867 29.72248077392578 L 115.6868209838867 28.0075798034668 C 115.6868209838867 27.18815612792969 115.5176315307617 26.40749359130859 115.2131729125977 25.69820594787598 L 115.2131729125977 22.85359191894531 C 115.2131729125977 10.25215530395508 104.9613571166992 -1.981811510631815e-05 92.36013031005859 -1.981811510631815e-05 C 79.76132202148438 -1.981811510631815e-05 69.51160430908203 10.25215530395508 69.51160430908203 22.85375595092773 L 69.51160430908203 25.6169548034668 C 69.51160430908203 25.63867950439453 69.51404571533203 25.65960502624512 69.51484680175781 25.68118095397949 C 69.20568084716797 26.39516830444336 69.033447265625 27.18150520324707 69.033447265625 28.00773048400879 L 69.033447265625 29.72264289855957 C 69.033447265625 32.96448135375977 71.6688232421875 35.60197830200195 74.90805816650391 35.60197830200195 L 76.24844360351562 35.60197830200195 C 77.17687225341797 40.05398178100586 79.91004180908203 43.85100555419922 83.64429473876953 46.19216918945312 L 83.64429473876953 50.84884262084961 C 82.75823211669922 51.12166595458984 81.81293487548828 51.39480590820312 80.82987213134766 51.67898178100586 C 72.40406036376953 54.11371612548828 60.86470794677734 57.44834136962891 60.68011856079102 68.73435211181641 C 60.67996978759766 68.74327087402344 60.67996978759766 68.75202941894531 60.67996978759766 68.76097106933594 L 60.67996978759766 81.4227294921875 C 60.67996978759766 82.31855773925781 61.40628051757812 83.04470825195312 62.30193328857422 83.04470825195312 L 67.11074829101562 83.04470825195312 M 98.46002197265625 62.88795471191406 L 100.2115936279297 64.069091796875 C 101.0066757202148 64.60516357421875 102.1250228881836 64.31594848632812 102.5616607666016 63.46441650390625 L 106.4761199951172 55.8299560546875 C 109.5096969604492 56.77376937866211 112.5872344970703 57.90185546875 115.1045227050781 59.4852294921875 C 118.9193954467773 61.88476943969727 120.7283706665039 64.83677673339844 120.7966461181641 68.77442932128906 L 120.7963180541992 79.80075836181641 L 99.53359222412109 79.80075836181641 L 96.95920562744141 68.52853393554688 L 98.46002197265625 62.88795471191406 M 96.20612335205078 79.80075836181641 L 88.51800537109375 79.80075836181641 L 90.72533416748047 70.12082672119141 L 93.99539184570312 70.12082672119141 L 96.20612335205078 79.80075836181641 M 92.36125946044922 58.77542877197266 L 95.61361694335938 60.96866607666016 L 94.04178619384766 66.87687683105469 L 90.678466796875 66.87687683105469 L 89.10710906982422 60.97045516967773 L 92.36125946044922 58.77542877197266 M 85.01260375976562 53.81983184814453 L 89.46037292480469 56.81917953491211 L 84.21490478515625 60.35735702514648 L 81.40792083740234 54.88854217529297 C 81.51529693603516 54.85756683349609 81.62364196777344 54.82610702514648 81.73038482666016 54.79528045654297 C 82.88100433349609 54.4627685546875 83.97939300537109 54.14486694335938 85.01260375976562 53.81983184814453 M 99.70795440673828 53.81998062133789 C 100.7408294677734 54.1450309753418 101.8392486572266 54.4627685546875 102.989860534668 54.79528045654297 C 103.0967483520508 54.82609176635742 103.2054214477539 54.85773086547852 103.3131103515625 54.88886642456055 L 100.5092163085938 60.35718154907227 L 95.26198577880859 56.81885528564453 L 99.70795440673828 53.81998062133789 M 86.88806915283203 47.75770568847656 C 88.60105895996094 48.36350631713867 90.44212341308594 48.69585418701172 92.35994720458984 48.69585418701172 C 94.27759552001953 48.69585418701172 96.11903381347656 48.36464309692383 97.83181762695312 47.75883102416992 L 97.83181762695312 51.17227935791016 L 92.36091613769531 54.86275482177734 L 86.88806915283203 51.17227935791016 L 86.88806915283203 47.75770568847656 M 79.14609527587891 27.6630802154541 C 84.69539642333984 27.79839515686035 88.00562286376953 26.52478218078613 93.17954254150391 24.53299331665039 C 93.99442291259766 24.21930503845215 94.83672332763672 23.89506721496582 95.7542724609375 23.55007934570312 C 98.81819915771484 22.69481658935547 100.5810775756836 23.81738471984863 103.7656555175781 25.84468078613281 C 104.318244934082 26.19649314880371 104.9243698120117 26.58202934265137 105.5741424560547 26.97795486450195 L 105.5741424560547 32.23752975463867 C 105.5741424560547 34.64956665039062 104.9214706420898 36.91060638427734 103.7881927490234 38.85908126831055 L 92.36013031005859 38.85908126831055 C 91.46445465087891 38.85908126831055 90.7381591796875 39.58523178100586 90.7381591796875 40.48105621337891 C 90.7381591796875 41.37686920166016 91.46445465087891 42.1030158996582 92.36013031005859 42.1030158996582 L 101.1388549804688 42.1030158996582 C 98.80290985107422 44.18418121337891 95.72731781005859 45.45207977294922 92.36013031005859 45.45207977294922 C 85.60801696777344 45.45191955566406 80.02618408203125 40.3602180480957 79.24358367919922 33.81539154052734 L 79.24358367919922 33.81538009643555 C 79.24342346191406 33.81376647949219 79.24308013916016 33.81214141845703 79.24290466308594 33.81051635742188 C 79.18147277832031 33.29424285888672 79.14609527587891 32.77001953125 79.14609527587891 32.23752975463867 L 79.14609527587891 27.6630802154541 M 108.4719543457031 35.60182952880859 L 109.8123474121094 35.60182952880859 C 110.5738677978516 35.60182952880859 111.3010101318359 35.45455551147461 111.9694061279297 35.18935394287109 L 111.9692611694336 37.54770660400391 C 111.9692611694336 38.27079391479492 111.3811111450195 38.85891723632812 110.6580352783203 38.85891723632812 L 107.4257736206055 38.85891723632812 C 107.8821792602539 37.82425689697266 108.2357788085938 36.73444366455078 108.4719543457031 35.60182952880859 M 75.90375518798828 32.3580436706543 L 74.90805816650391 32.3580436706543 C 73.45750427246094 32.3580436706543 72.27739715576172 31.17577934265137 72.27739715576172 29.72265434265137 L 72.27739715576172 28.00774192810059 C 72.27739715576172 26.55705451965332 73.45736694335938 25.37690544128418 74.90805816650391 25.37690544128418 L 75.90214538574219 25.37690544128418 C 75.90214538574219 25.37690544128418 75.90347290039062 32.31781768798828 75.90375518798828 32.3580436706543 M 108.818244934082 25.37674331665039 L 109.8123550415039 25.37674331665039 C 111.2628555297852 25.37674331665039 112.4430236816406 26.55689239501953 112.4430236816406 28.0075798034668 L 112.44287109375 29.72249221801758 C 112.44287109375 31.17561721801758 111.2628555297852 32.35787963867188 109.8121795654297 32.35787963867188 L 108.8166046142578 32.35787963867188 C 108.8169708251953 32.31765365600586 108.818244934082 25.37674331665039 108.818244934082 25.37674331665039 M 92.35994720458984 9.905867576599121 C 99.64615631103516 9.905867576599121 105.5739669799805 15.83385562896729 105.5739669799805 23.12041854858398 L 105.5739669799805 23.15031433105469 C 105.5740203857422 23.15034866333008 105.5740814208984 23.15038299560547 105.5741348266602 23.15041732788086 L 105.5739669799805 23.15031433105469 C 105.5518112182617 23.1362361907959 105.5297927856445 23.12215805053711 105.5076293945312 23.10809326171875 C 102.1795120239258 20.98946952819824 99.30504608154297 19.15971374511719 94.80118560791016 20.44836807250977 C 94.75933074951172 20.46038055419922 94.71779632568359 20.4740047454834 94.67709350585938 20.48924255371094 C 93.72222900390625 20.84786796569824 92.85400390625 21.18215560913086 92.01414489746094 21.50541687011719 C 86.88498687744141 23.4798412322998 84.08455657958984 24.55813598632812 79.14593505859375 24.41929244995117 L 79.14593505859375 23.12041854858398 C 79.14593505859375 15.83385562896729 85.07373046875 9.905867576599121 92.35994720458984 9.905867576599121 M 92.36013031005859 6.661930084228516 C 83.61672210693359 6.661930084228516 76.44503021240234 13.51574230194092 75.93247985839844 22.13280487060547 L 74.90789794921875 22.13280487060547 C 74.14962005615234 22.13280487060547 73.42540740966797 22.27876853942871 72.75942993164062 22.54154205322266 C 72.92697906494141 11.8721923828125 81.65447235107422 3.243942737579346 92.36013031005859 3.243942737579346 C 103.06884765625 3.243942737579346 111.7987823486328 11.87316799163818 111.9651794433594 22.5433177947998 C 111.2980728149414 22.27941703796387 110.5720977783203 22.13280487060547 109.8121795654297 22.13280487060547 L 108.78759765625 22.13280487060547 C 108.2750473022461 13.51558017730713 101.1033477783203 6.661930084228516 92.36013031005859 6.661930084228516 M 67.11074829101562 85.04470825195312 L 62.30193328857422 85.04470825195312 C 60.30477142333984 85.04470825195312 58.67996978759766 83.41989135742188 58.67996978759766 81.4227294921875 L 58.67996978759766 68.76097106933594 C 58.67996978759766 68.74073028564453 58.68005752563477 68.72087860107422 58.6804084777832 68.70070648193359 C 58.72989654541016 65.67486572265625 59.52265930175781 62.93996810913086 61.03667068481445 60.57290649414062 C 62.33427047729492 58.54419326782227 64.20010375976562 56.73834228515625 66.58232879638672 55.20553207397461 C 70.78959655761719 52.49841690063477 76.04880523681641 50.97870635986328 80.274658203125 49.75759124755859 L 80.29561614990234 49.75152969360352 C 80.75742340087891 49.61803436279297 81.20717620849609 49.48802185058594 81.64429473876953 49.35994338989258 L 81.64429473876953 47.25897598266602 C 79.94285583496094 46.04424667358398 78.470947265625 44.56167221069336 77.25881958007812 42.83998107910156 C 76.12084197998047 41.22359085083008 75.26210784912109 39.46636581420898 74.69599151611328 37.59916305541992 C 70.45170593261719 37.48613739013672 67.033447265625 33.99626159667969 67.033447265625 29.72264289855957 L 67.033447265625 28.00773048400879 C 67.033447265625 27.07829666137695 67.19410705566406 26.17175102233887 67.51160430908203 25.30656433105469 L 67.51160430908203 22.85375595092773 C 67.51160430908203 9.14934253692627 78.65860748291016 -2.000019788742065 92.36013031005859 -2.000019788742065 C 106.0641479492188 -2.000019788742065 117.2131729125977 9.14926815032959 117.2131729125977 22.85359191894531 L 117.2131729125977 25.31787872314453 C 117.5276641845703 26.17929458618164 117.6868209838867 27.08206558227539 117.6868209838867 28.0075798034668 L 117.6868209838867 29.72248077392578 C 117.6868209838867 30.64855766296387 117.5276565551758 31.55187606811523 117.2131729125977 32.41374206542969 L 117.2131729125977 37.54770660400391 C 117.2131729125977 41.1622314453125 114.2725448608398 44.10285568237305 110.6580352783203 44.10285568237305 L 106.4899063110352 44.10285568237305 C 105.4865875244141 45.29737854003906 104.3437728881836 46.35407638549805 103.0759353637695 47.25965118408203 L 103.0759353637695 49.36000061035156 C 103.53076171875 49.49330902099609 103.9918594360352 49.62651824951172 104.445442199707 49.7575569152832 C 108.6714859008789 50.97870635986328 113.9307556152344 52.49844360351562 118.1379089355469 55.20546722412109 C 120.520133972168 56.73826599121094 122.3859558105469 58.54411697387695 123.6835556030273 60.57284164428711 C 125.1975708007812 62.93990707397461 125.9903335571289 65.67482757568359 126.0398483276367 68.70165252685547 C 126.040168762207 68.72281646728516 126.0402450561523 68.74180603027344 126.0402450561523 68.76079559326172 L 126.0402450561523 81.42256927490234 C 126.0402450561523 83.41973114013672 124.4154434204102 85.04453277587891 122.4182815551758 85.04453277587891 L 81.67554473876953 85.04453277587891 C 79.67838287353516 85.04453277587891 78.05358123779297 83.41973114013672 78.05358123779297 81.42256927490234 C 78.05358123779297 79.42540740966797 79.67838287353516 77.80059051513672 81.67554473876953 77.80059051513672 L 83.59540557861328 77.80059051513672 L 85.70128631591797 68.56559753417969 L 85.03279876708984 66.05307006835938 C 84.58974456787109 66.24193572998047 84.11098480224609 66.33999633789062 83.62023162841797 66.33999633789062 C 82.24532318115234 66.33999633789062 81.00537109375 65.5882568359375 80.38428497314453 64.37812805175781 L 77.24122619628906 58.25434112548828 C 75.09022521972656 58.97666168212891 72.67798614501953 59.92185592651367 70.6807861328125 61.17814254760742 C 67.45243072509766 63.20881652832031 65.98471069335938 65.55780792236328 65.92374420166016 68.79255676269531 L 65.92374420166016 77.80075836181641 L 67.11074829101562 77.80075836181641 C 69.10791015625 77.80075836181641 70.73271942138672 79.42556762695312 70.73271942138672 81.4227294921875 C 70.73271942138672 83.41989135742188 69.10791015625 85.04470825195312 67.11074829101562 85.04470825195312 Z M 101.1283264160156 77.80075836181641 L 118.7966461181641 77.80075836181641 L 118.7966461181641 68.79256439208984 C 118.7356872558594 65.55775451660156 117.2679824829102 63.20877838134766 114.0396575927734 61.17818069458008 C 112.0431671142578 59.92238616943359 109.6310958862305 58.97721862792969 107.4803237915039 58.25492858886719 L 104.3413543701172 64.37693023681641 C 103.7204666137695 65.58782958984375 102.4803161621094 66.34004211425781 101.1048583984375 66.34004211425781 C 100.6125335693359 66.34004211425781 100.1322555541992 66.24137115478516 99.68791961669922 66.05128479003906 L 99.01905822753906 68.56510162353516 L 101.1283264160156 77.80075836181641 Z M 91.02541351318359 77.80075836181641 L 93.69785308837891 77.80075836181641 L 92.40065765380859 72.12082672119141 L 92.32061767578125 72.12082672119141 L 91.02541351318359 77.80075836181641 Z M 92.21595764160156 64.87687683105469 L 92.50429534912109 64.87687683105469 L 93.31472015380859 61.83066558837891 L 92.36140441894531 61.18779754638672 L 91.40596008300781 61.83227157592773 L 92.21595764160156 64.87687683105469 Z M 84.29345703125 56.13051223754883 L 84.96503448486328 57.43893051147461 L 85.88352203369141 56.81939315795898 L 84.68703460693359 56.01253890991211 C 84.55636596679688 56.05197143554688 84.42506408691406 56.09131240844727 84.29345703125 56.13051223754883 Z M 98.83890533447266 56.8186149597168 L 99.75818634033203 57.43850708007812 L 100.4285659790039 56.13108444213867 C 100.2963485717773 56.09170913696289 100.1647262573242 56.05228042602539 100.0336608886719 56.01273345947266 L 98.83890533447266 56.8186149597168 Z M 89.406982421875 50.4586181640625 L 92.36071014404297 52.45038986206055 L 95.3125 50.45922088623047 C 94.34032440185547 50.61661529541016 93.35403442382812 50.69585418701172 92.35994720458984 50.69585418701172 C 91.3662109375 50.69585418701172 90.37981414794922 50.61642074584961 89.406982421875 50.4586181640625 Z M 81.23139190673828 33.59417343139648 C 81.55748748779297 36.28752899169922 82.85877990722656 38.77413558959961 84.89680480957031 40.59743118286133 C 86.34703826904297 41.89487838745117 88.09207916259766 42.78153610229492 89.96053314208984 43.19191360473633 C 89.21124267578125 42.52786636352539 88.7381591796875 41.55862426757812 88.7381591796875 40.48105621337891 C 88.7381591796875 38.48389434814453 90.36296844482422 36.85908126831055 92.36013031005859 36.85908126831055 L 102.5727386474609 36.85908126831055 C 103.2302703857422 35.41154861450195 103.5741424560547 33.83374786376953 103.5741424560547 32.23752975463867 L 103.5741424560547 28.09119606018066 C 103.2549362182617 27.89046287536621 102.9566192626953 27.70053672790527 102.6915435791016 27.53176689147949 C 100.2817077636719 25.9976806640625 99.06362152099609 25.26076698303223 97.70005798339844 25.26076698303223 C 97.29445648193359 25.26076698303223 96.85916137695312 25.32424926757812 96.37168884277344 25.45465469360352 C 95.49400329589844 25.78511047363281 94.68303680419922 26.09728622436523 93.89804840087891 26.39946746826172 C 89.33487701416016 28.15613174438477 85.94202423095703 29.46222496032715 81.14609527587891 29.64971733093262 L 81.14609527587891 32.23752975463867 C 81.14609527587891 32.65834426879883 81.17189025878906 33.0848503112793 81.22490692138672 33.54027557373047 L 81.23139190673828 33.59417343139648 Z M 92.35994720458984 11.90586757659912 C 86.41806030273438 11.90586757659912 81.54072570800781 16.55102348327637 81.16874694824219 22.40095710754395 C 84.58448791503906 22.22221374511719 87.09131622314453 21.25735282897949 91.29473114013672 19.63929176330566 L 91.32564544677734 19.62739181518555 C 92.15999603271484 19.30624198913574 93.02274322509766 18.97416687011719 93.97389221191406 18.616943359375 C 94.06473541259766 18.58292961120605 94.15676116943359 18.55257987976074 94.24939727783203 18.52599334716797 C 95.44073486328125 18.18513107299805 96.56389617919922 18.01965522766113 97.6846923828125 18.01965522766113 C 99.63323974609375 18.01965522766113 101.3301239013672 18.53952026367188 102.8983535766602 19.28472328186035 C 101.3283004760742 14.98429870605469 97.19679260253906 11.90586757659912 92.35994720458984 11.90586757659912 Z" stroke="none" fill="#fff"/>
      </g>
      <g id="Path_17" data-name="Path 17" transform="translate(-287.516 -370.305)" fill="#00133b">
        <path d="M 341.227294921875 446.2388916015625 L 333.0530395507812 446.2388916015625 C 331.6072692871094 446.2388916015625 330.4310302734375 445.0627136230469 330.4310302734375 443.6170043945312 C 330.4310302734375 442.1712341308594 331.6072692871094 440.9950256347656 333.0530395507812 440.9950256347656 L 341.227294921875 440.9950256347656 C 342.6730041503906 440.9950256347656 343.8491821289062 442.1712341308594 343.8491821289062 443.6170043945312 C 343.8491821289062 445.0627136230469 342.6730041503906 446.2388916015625 341.227294921875 446.2388916015625 Z" stroke="none"/>
        <path d="M 333.0530395507812 441.9950256347656 C 332.1573486328125 441.9950256347656 331.4310302734375 442.72119140625 331.4310302734375 443.6170043945312 C 331.4310302734375 444.5128784179688 332.1573486328125 445.2388916015625 333.0530395507812 445.2388916015625 L 341.227294921875 445.2388916015625 C 342.1229248046875 445.2388916015625 342.8491821289062 444.5128784179688 342.8491821289062 443.6170043945312 C 342.8491821289062 442.72119140625 342.1231689453125 441.9950256347656 341.227294921875 441.9950256347656 L 333.0530395507812 441.9950256347656 M 333.0530395507812 439.9950256347656 L 341.227294921875 439.9950256347656 C 343.2244262695312 439.9950256347656 344.8491821289062 441.6198425292969 344.8491821289062 443.6170043945312 C 344.8491821289062 445.6141357421875 343.2244262695312 447.2388916015625 341.227294921875 447.2388916015625 L 333.0530395507812 447.2388916015625 C 331.0558471679688 447.2388916015625 329.4310302734375 445.6141357421875 329.4310302734375 443.6170043945312 C 329.4310302734375 441.6198425292969 331.0558471679688 439.9950256347656 333.0530395507812 439.9950256347656 Z" stroke="none" fill="#fff"/>
      </g>
      <g id="Path_18" data-name="Path 18" transform="translate(-123.136 -412.197)" fill="#00133b">
        <path d="M 136.853515625 496.2420043945312 L 136.8489837646484 496.2420043945312 C 135.4032287597656 496.2420043945312 134.2270202636719 495.0657348632812 134.2270202636719 493.6199340820312 C 134.2270202636719 492.1741638183594 135.4032287597656 490.9979248046875 136.8489837646484 490.9979248046875 C 138.2959136962891 490.9979248046875 139.4730834960938 492.1741638183594 139.4730834960938 493.6199340820312 C 139.4730834960938 495.0657348632812 138.2979583740234 496.2420043945312 136.853515625 496.2420043945312 Z" stroke="none"/>
        <path d="M 136.8489837646484 491.9979248046875 C 135.9533081054688 491.9979248046875 135.2270202636719 492.72412109375 135.2270202636719 493.6199340820312 C 135.2270202636719 494.5157470703125 135.9533081054688 495.2420043945312 136.8489837646484 495.2420043945312 L 136.853515625 495.2420043945312 C 137.7491912841797 495.2420043945312 138.4730834960938 494.5157470703125 138.4730834960938 493.6199340820312 C 138.4730834960938 492.72412109375 137.74462890625 491.9979248046875 136.8489837646484 491.9979248046875 M 136.8489837646484 489.9979248046875 C 138.8473205566406 489.9979248046875 140.4730834960938 491.6227416992188 140.4730834960938 493.6199340820312 C 140.4730834960938 495.6171569824219 138.8493499755859 497.2420043945312 136.853515625 497.2420043945312 C 134.8518218994141 497.2420043945312 133.2270202636719 495.6171569824219 133.2270202636719 493.6199340820312 C 133.2270202636719 491.6227416992188 134.8518218994141 489.9979248046875 136.8489837646484 489.9979248046875 Z" stroke="none" fill="#fff"/>
      </g>
    </g>
  </g>
</svg>
