<svg id="promotion" xmlns="http://www.w3.org/2000/svg" width="83.045" height="78.583" viewBox="0 0 83.045 78.583">
  <path id="Path_19" data-name="Path 19" d="M124.4,292.6a1.622,1.622,0,1,0-2.216-.594A1.623,1.623,0,0,0,124.4,292.6Zm0,0" transform="translate(-102.181 -242.607)" fill="#00133b"/>
  <path id="Path_20" data-name="Path 20" d="M15.568,79.919l8.168,14.149A6.488,6.488,0,1,0,34.974,87.58l-4.866-8.429,4.214-2.433a1.622,1.622,0,0,0,.594-2.216l-2.109-3.653,31.067-6.094a4.865,4.865,0,0,0,3.944-7.291l-5.391-9.336,3.445-5.218a1.623,1.623,0,0,0,.051-1.7l-3.244-5.619a1.625,1.625,0,0,0-1.5-.808l-6.24.374L48.952,24.788A4.824,4.824,0,0,0,44.8,22.356h-.062a4.823,4.823,0,0,0-4.1,2.244L19.452,51.591,5.677,59.544a11.354,11.354,0,0,0,9.891,20.375Zm16.6,9.284a3.244,3.244,0,0,1-5.619,3.243L18.436,78.4l5.619-3.244L32.165,89.2ZM28.486,76.341l-1.622-2.809,2.809-1.622L31.3,74.719ZM60.371,38.077l2.242,3.883-2,3.027L56.75,38.295Zm-17.017-11.7a1.621,1.621,0,0,1,2.789.032L65.008,59.087a1.622,1.622,0,0,1-1.365,2.432,5.955,5.955,0,0,0-.89.151L42.8,27.1c.419-.539.473-.591.556-.727Zm-2.714,3.476L59.389,62.33l-28.3,5.55-8.6-14.9ZM4.331,73.431A8.1,8.1,0,0,1,7.3,62.353l12.642-7.3L28.051,69.1,15.409,76.4A8.12,8.12,0,0,1,4.331,73.431Zm0,0" transform="translate(0 -18.73)" fill="#008ced"/>
  <path id="Path_21" data-name="Path 21" d="M52.949,310.384a1.622,1.622,0,0,0-2.216-.594l-2.809,1.622a1.624,1.624,0,0,1-2.216-.594A1.622,1.622,0,0,0,42.9,312.44a4.872,4.872,0,0,0,6.647,1.781l2.809-1.622a1.622,1.622,0,0,0,.594-2.216Zm0,0" transform="translate(-35.759 -259.361)" fill="#00133b"/>
  <path id="Path_22" data-name="Path 22" d="M446.147,42.686l-9.038,5.029a1.622,1.622,0,0,0,1.578,2.835l9.037-5.029a1.622,1.622,0,0,0-1.577-2.835Zm0,0" transform="translate(-365.513 -35.591)" fill="#00133b"/>
  <path id="Path_23" data-name="Path 23" d="M448.373,138.356l-6.267-1.679a1.622,1.622,0,1,0-.839,3.133l6.267,1.679a1.622,1.622,0,1,0,.839-3.133Zm0,0" transform="translate(-368.686 -114.461)" fill="#00133b"/>
  <path id="Path_24" data-name="Path 24" d="M385.229,1.2,383.548,7.47a1.622,1.622,0,0,0,3.134.84l1.68-6.267a1.622,1.622,0,1,0-3.133-.84Zm0,0" transform="translate(-321.291 0)" fill="#00133b"/>
</svg>
