<svg xmlns="http://www.w3.org/2000/svg" width="75.361" height="78.385" viewBox="0 0 75.361 78.385">
  <g id="Rocket" transform="translate(-3 -3.025)">
    <g id="Start_Up" data-name="Start Up" transform="translate(3 3.025)">
      <path id="Path_15866" data-name="Path 15866" d="M70.855,10.64A8.711,8.711,0,0,0,64.09,3.563a37.348,37.348,0,0,0-34.3,12.22,45.887,45.887,0,0,0-5.764,7.653A18.922,18.922,0,0,0,5.973,36.073a3.057,3.057,0,0,0,.626,3.19,2.737,2.737,0,0,0,3.05.654,12.914,12.914,0,0,1,6.864-.748c-.891,2.3-1.671,4.46-2.338,6.311-.362,1.011-.687,1.919-.981,2.7a9.172,9.172,0,0,0,1.877,9.478l4.071,4.256A8.212,8.212,0,0,0,28.233,63.9c.752-.3,1.626-.651,2.592-1.032,1.767-.695,3.831-1.511,6.024-2.44a14.678,14.678,0,0,1-.715,7.177,3.073,3.073,0,0,0,.3,2.746,2.794,2.794,0,0,0,2.335,1.291,2.691,2.691,0,0,0,1.023-.2A19.782,19.782,0,0,0,51.866,52.548a44.624,44.624,0,0,0,7.316-6.03A41.209,41.209,0,0,0,70.855,10.64ZM57.911,8.892a26.16,26.16,0,0,1,5.108.482,2.944,2.944,0,0,1,2.287,2.392,30.621,30.621,0,0,1,.43,6.607A13.607,13.607,0,0,1,56.689,8.91c.427-.015.834-.024,1.221-.024ZM14.618,33.024a13.261,13.261,0,0,1,5.976-3.3q-.953,1.949-1.8,3.874a18.267,18.267,0,0,0-4.178-.577ZM42.693,62.393a20.859,20.859,0,0,0-.565-4.374c1.233-.591,2.465-1.215,3.709-1.884a14.24,14.24,0,0,1-3.144,6.258ZM28.841,57.318c-1,.393-1.894.745-2.666,1.059a2.737,2.737,0,0,1-3.033-.654l-4.062-4.247a3.057,3.057,0,0,1-.625-3.173c.3-.807.639-1.739,1.012-2.777C22.172,39.988,26.7,27.378,33.8,19.953A34.7,34.7,0,0,1,51.086,9.685a20.243,20.243,0,0,0,4.976,9.351A18.9,18.9,0,0,0,65,24.241a37.064,37.064,0,0,1-9.824,18.1C48.081,49.756,36.03,54.5,28.829,57.33Z" transform="translate(3.99 -3.025)" fill="#008ced"/>
      <path id="Path_15867" data-name="Path 15867" d="M21.072,24.032a3.523,3.523,0,0,0-4.982,0L4.841,35.267a3.532,3.532,0,0,0,5,5L21.072,29.027a3.523,3.523,0,0,0,0-5Z" transform="translate(-0.966 34.247)"/>
      <path id="Path_15868" data-name="Path 15868" d="M9.014,33.367,16.3,26.082A3.523,3.523,0,1,0,11.317,21.1L4.032,28.386a3.523,3.523,0,1,0,4.982,4.982Z" transform="translate(-3 29.763)" fill="#008ced"/>
      <path id="Path_15869" data-name="Path 15869" d="M16.182,25.964,8.9,33.25a3.523,3.523,0,1,0,4.982,4.982l7.285-7.286a3.523,3.523,0,1,0-4.982-4.982Z" transform="translate(5.686 39.121)" fill="#008ced"/>
      <path id="Path_15870" data-name="Path 15870" d="M19.507,12.694a11.6,11.6,0,1,0,16.4,0A11.6,11.6,0,0,0,19.507,12.694ZM30.929,24.116a4.552,4.552,0,1,1,0-6.44,4.552,4.552,0,0,1,0,6.44Z" transform="translate(19.159 8.575)"/>
    </g>
  </g>
</svg>
