<svg id="technical-support" xmlns="http://www.w3.org/2000/svg" width="83.045" height="83.045" viewBox="0 0 83.045 83.045">
  <path id="Path_25" data-name="Path 25" d="M14.606,64.221a6.771,6.771,0,0,0-3.272.835A38.3,38.3,0,0,1,49.145,4a1.622,1.622,0,0,0,.642-3.18A41.831,41.831,0,0,0,41.522,0,41.522,41.522,0,0,0,8.935,67.255a6.815,6.815,0,1,0,5.671-3.034Zm2.523,9.335a3.568,3.568,0,1,1,1.045-2.523A3.544,3.544,0,0,1,17.129,73.557Zm0,0" transform="translate(0 0.001)" fill="#008ced"/>
  <path id="Path_26" data-name="Path 26" d="M239.56,42.64a6.8,6.8,0,1,0-2.4,2.2,38.3,38.3,0,0,1-37.739,61.069,1.622,1.622,0,0,0-.637,3.181,41.86,41.86,0,0,0,8.187.807A41.523,41.523,0,0,0,239.561,42.64Zm-8.192-1.253a3.569,3.569,0,1,1,2.523,1.045A3.545,3.545,0,0,1,231.368,41.387Zm0,0" transform="translate(-165.452 -26.852)" fill="#008ced"/>
  <path id="Path_27" data-name="Path 27" d="M96.813,131.418a1.622,1.622,0,0,0,1.622,1.622h10.142a1.622,1.622,0,0,0,1.622-1.622v-3.145a25.4,25.4,0,0,0,6.087-2.523l2.22,2.22a1.621,1.621,0,0,0,2.294,0l7.168-7.173a1.623,1.623,0,0,0,0-2.294l-2.218-2.218a25.4,25.4,0,0,0,2.523-6.088h3.132a1.622,1.622,0,0,0,1.622-1.622V98.434a1.622,1.622,0,0,0-1.622-1.622h-3.133a25.4,25.4,0,0,0-2.522-6.087l2.206-2.206a1.622,1.622,0,0,0,0-2.295l-7.174-7.168a1.622,1.622,0,0,0-2.294,0l-2.2,2.2a25.4,25.4,0,0,0-6.087-2.523V75.622A1.622,1.622,0,0,0,108.577,74H98.435a1.622,1.622,0,0,0-1.622,1.622v3.116a25.379,25.379,0,0,0-6.087,2.522l-2.2-2.2a1.623,1.623,0,0,0-2.294,0l-7.173,7.169a1.621,1.621,0,0,0,0,2.294l2.206,2.206a25.394,25.394,0,0,0-2.523,6.087H75.612a1.622,1.622,0,0,0-1.622,1.621l-.006,10.142a1.621,1.621,0,0,0,1.622,1.623h3.132a25.4,25.4,0,0,0,2.523,6.088L79.044,118.5a1.622,1.622,0,0,0,0,2.294l7.168,7.173a1.622,1.622,0,0,0,1.147.476h0a1.622,1.622,0,0,0,1.147-.475l2.219-2.22a25.419,25.419,0,0,0,6.087,2.523Zm-5.451-9.079a1.622,1.622,0,0,0-2.027.215L87.36,124.53l-4.875-4.879,1.973-1.974a1.621,1.621,0,0,0,.215-2.027,22.2,22.2,0,0,1-3.072-7.415,1.622,1.622,0,0,0-1.586-1.281H77.229l0-6.9h2.782A1.622,1.622,0,0,0,81.6,98.775a22.2,22.2,0,0,1,3.072-7.414,1.621,1.621,0,0,0-.215-2.027L82.5,87.373,87.376,82.5l1.958,1.959a1.623,1.623,0,0,0,2.027.215A22.192,22.192,0,0,1,98.776,81.6a1.623,1.623,0,0,0,1.281-1.586v-2.77h6.9v2.769a1.621,1.621,0,0,0,1.281,1.586,22.211,22.211,0,0,1,7.414,3.072,1.621,1.621,0,0,0,2.027-.215l1.959-1.958,4.879,4.875-1.96,1.96a1.622,1.622,0,0,0-.215,2.027,22.216,22.216,0,0,1,3.072,7.414A1.621,1.621,0,0,0,127,100.056h2.787v6.9H127a1.622,1.622,0,0,0-1.586,1.281,22.2,22.2,0,0,1-3.072,7.414,1.622,1.622,0,0,0,.215,2.027l1.973,1.973-4.875,4.879-1.975-1.974a1.622,1.622,0,0,0-2.027-.215,22.216,22.216,0,0,1-7.414,3.072A1.622,1.622,0,0,0,106.955,127v2.8h-6.9V127a1.623,1.623,0,0,0-1.281-1.586,22.2,22.2,0,0,1-7.414-3.072Zm0,0" transform="translate(-61.984 -61.997)" fill="#00133b"/>
  <path id="Path_28" data-name="Path 28" d="M200.176,186.773a13.4,13.4,0,1,0-13.4,13.4A13.417,13.417,0,0,0,200.176,186.773Zm-23.56,0a10.158,10.158,0,1,1,10.158,10.158A10.169,10.169,0,0,1,176.615,186.773Zm0,0" transform="translate(-145.251 -145.251)" fill="#008ced"/>
  <path id="Path_29" data-name="Path 29" d="M339.7,21.054a1.623,1.623,0,1,0-1.146-.475A1.634,1.634,0,0,0,339.7,21.054Zm0,0" transform="translate(-283.243 -14.92)" fill="#008ced"/>
  <path id="Path_30" data-name="Path 30" d="M155.981,474.359a1.622,1.622,0,1,0,1.147.475A1.634,1.634,0,0,0,155.981,474.359Zm0,0" transform="translate(-129.322 -397.419)" fill="#008ced"/>
</svg>
